<?xml version="1.0" encoding="utf-8"?>
<svg version="1.1" xmlns="http://www.w3.org/2000/svg" xmlns:xlink="http://www.w3.org/1999/xlink" x="0px" y="0px"
	 viewBox="0 0 500 200" style="enable-background:new 0 0 500 200;" xml:space="preserve">
<style type="text/css">
	.st0{display:none;}
	.st1{display:inline;fill:#101525;}
	.st2{fill:#EB5B5D;fill-opacity:0.28;stroke:#EB5B5D;stroke-width:3;stroke-miterlimit:10;}
	.st3{fill:#EB5B5D;}
	.st4{font-family:'Quicksand-Regular';}
	.st5{font-size:119.0267px;}
	.st6{letter-spacing:6;}
</style>
<!-- <g id="Calque_1" class="st0">
	<rect class="st1" width="500" height="200"/>
</g> -->
<g id="Calque_1_-_copie">
	<path class="st2 anim-carre" d="M159.6,157.8H74.3c-9.8,0-17.7-7.9-17.7-17.7V54.8c0-9.8,7.9-17.7,17.7-17.7h85.3c9.8,0,17.7,7.9,17.7,17.7 v85.3C177.3,149.9,169.4,157.8,159.6,157.8z"/>
	<path class="st3 anim-carre" d="M155,52.4h-76c-1.1,0-2.1-0.9-2.1-2.1v0c0-1.1,0.9-2.1,2.1-2.1h76c1.1,0,2.1,0.9,2.1,2.1v0 C157,51.5,156.1,52.4,155,52.4z"/>
	<text transform="matrix(-1 -4.000000e-05 4.000000e-05 -1 150.8398 58.8716)" class="st3 st4 st5 st6 anim-carre">k</text>
	<text transform="matrix(1 0 0 1 183.6156 139.1542)" class="st3 st4 st5 st6 anim-l">l</text>
	<text transform="matrix(1 0 0 1 210 139.1542)" class="st3 st4 st5 st6 anim-a1">a</text>
	<text transform="matrix(1 0 0 1 280.6156 139.1542)" class="st3 st4 st5 st6 anim-a2">a</text>
	<text transform="matrix(1 0 0 1 350.6156 139.1542)" class="st3 st4 st5 st6 anim-p">p</text>
</g>
</svg>
