<?xml version="1.0" encoding="utf-8"?>
<!-- Generator: Adobe Illustrator 21.0.0, SVG Export Plug-In . SVG Version: 6.00 Build 0)  -->
<svg version="1.1" id="Calque_1" xmlns="http://www.w3.org/2000/svg" xmlns:xlink="http://www.w3.org/1999/xlink" x="0px" y="0px"
	 viewBox="0 0 200 200" style="enable-background:new 0 0 200 200;" xml:space="preserve">
<style type="text/css">
	.st0{fill:#EB5B5D;fill-opacity:0.28;stroke:#EB5B5D;stroke-width:3;stroke-miterlimit:10;}
	.st1{fill:#EB5B5D;}
</style>
<path class="st0" d="M179,196.4H21c-9.8,0-17.7-7.9-17.7-17.7v-158C3.3,10.9,11.2,3,21,3h158c9.8,0,17.7,7.9,17.7,17.7v158
	C196.7,188.5,188.8,196.4,179,196.4z"/>
<path class="st1" d="M162.2,26.5H37.8c-1.1,0-2.1-0.9-2.1-2.1V22c0-1.1,0.9-2.1,2.1-2.1h124.3c1.1,0,2.1,0.9,2.1,2.1v2.5
	C164.2,25.6,163.3,26.5,162.2,26.5z"/>
<g>
	<path class="st1" d="M60.3,42.6c0-1.7,0.7-3,2-4.1c1.3-1.1,2.6-1.6,3.7-1.6c1.7,0,3.1,0.7,4.2,2.1l42.2,44.6l14.3-12.2l0-28.8
		c0-1.7,0.5-3,1.6-4.1c1.1-1.1,2.4-1.6,4.1-1.6c1.7,0,3,0.5,4.1,1.6c1.1,1.1,1.6,2.4,1.6,4.1l0,129.7c0,1.7-0.5,3-1.6,4.1
		c-1.1,1.1-2.4,1.6-4.1,1.6c-1.7,0-3-0.5-4.1-1.6c-1.1-1.1-1.6-2.4-1.6-4.1l0-87l-55.1,47.5c-1.1,1.3-2.5,1.9-4,1.9
		c-1.4,0-2.7-0.6-3.8-1.8c-1.1-1.2-1.7-2.5-1.7-3.9c0-1.5,0.7-3,2.1-4.4l39.3-33.4L62,47C60.8,45.7,60.3,44.2,60.3,42.6z"/>
</g>
</svg>
